<?xml version="1.0" encoding="UTF-8" standalone="no"?>
<!-- Created with Inkscape (http://www.inkscape.org/) -->

<svg
   width="210mm"
   height="297mm"
   viewBox="0 0 210 297"
   version="1.1"
   id="svg1"
   inkscape:export-filename="lcars.png"
   inkscape:export-xdpi="96"
   inkscape:export-ydpi="96"
   inkscape:version="1.3 (0e150ed6c4, 2023-07-21)"
   sodipodi:docname="lcars.svg"
   xmlns:inkscape="http://www.inkscape.org/namespaces/inkscape"
   xmlns:sodipodi="http://sodipodi.sourceforge.net/DTD/sodipodi-0.dtd"
   xmlns:xlink="http://www.w3.org/1999/xlink"
   xmlns="http://www.w3.org/2000/svg"
   xmlns:svg="http://www.w3.org/2000/svg">
  <sodipodi:namedview
     id="namedview1"
     pagecolor="#ffffff"
     bordercolor="#000000"
     borderopacity="0.25"
     inkscape:showpageshadow="2"
     inkscape:pageopacity="0.0"
     inkscape:pagecheckerboard="0"
     inkscape:deskcolor="#d1d1d1"
     inkscape:document-units="mm"
     showguides="false"
     inkscape:zoom="0.85608804"
     inkscape:cx="272.16827"
     inkscape:cy="475.41839"
     inkscape:window-width="1906"
     inkscape:window-height="1040"
     inkscape:window-x="1925"
     inkscape:window-y="31"
     inkscape:window-maximized="1"
     inkscape:current-layer="layer1" />
  <defs
     id="defs1">
    <inkscape:path-effect
       effect="fillet_chamfer"
       id="path-effect51"
       is_visible="true"
       lpeversion="1"
       nodesatellites_param="F,0,0,1,0,0,0,1 @ F,0,0,1,0,0,0,1 @ F,0,0,1,0,0,0,1 @ F,0,0,1,0,0,0,1 @ F,0,0,1,0,0,0,1 @ F,0,0,1,0,0,0,1 @ F,0,0,1,0,0,0,1 @ F,0,0,1,0,0,0,1 @ F,0,0,1,0,0,0,1 @ F,0,0,1,0,0,0,1 @ F,0,0,1,0,0,0,1 @ F,0,0,1,0,0,0,1 @ F,0,0,1,0,0,0,1 @ F,0,0,1,0,0,0,1 @ F,0,0,1,0,0,0,1 @ F,0,0,1,0,0,0,1 @ F,0,0,1,0,0,0,1 @ F,0,0,1,0,0,0,1 @ F,0,0,1,0,0,0,1 @ F,0,0,1,0,0,0,1 @ F,0,0,1,0,0,0,1 @ F,0,0,1,0,0,0,1 @ F,0,0,1,0,0,0,1 @ F,0,0,1,0,0,0,1 @ F,0,0,1,0,0.26458333,0,1 @ F,0,0,1,0,0,0,1 @ F,0,0,1,0,0.26458333,0,1 @ F,0,0,1,0,0,0,1 @ F,0,0,1,0,0,0,1 @ F,0,0,1,0,0,0,1 @ F,0,0,1,0,0,0,1 @ F,0,0,1,0,0,0,1 @ F,0,0,1,0,0,0,1 @ F,0,0,1,0,0,0,1 @ F,0,0,1,0,0,0,1 @ F,0,0,1,0,0,0,1 @ F,0,1,1,0,0.13229167,0,1 @ F,0,0,1,0,0.26458333,0,1 @ F,0,0,1,0,0,0,1 @ F,0,0,1,0,0,0,1 @ F,0,0,1,0,0,0,1 @ F,0,0,1,0,0,0,1 @ F,0,0,1,0,0,0,1 @ F,0,0,1,0,0,0,1 @ F,0,0,1,0,0,0,1 @ F,0,0,1,0,0,0,1 @ F,0,0,1,0,0,0,1 @ F,0,0,1,0,0,0,1 @ F,0,0,1,0,0,0,1 @ F,0,0,1,0,0,0,1 @ F,0,0,1,0,0,0,1 @ F,0,0,1,0,0,0,1 @ F,0,0,1,0,0,0,1 @ F,0,0,1,0,0,0,1 @ F,0,0,1,0,0,0,1 @ F,0,0,1,0,0,0,1 @ F,0,0,1,0,0,0,1 @ F,0,0,1,0,0,0,1 @ F,0,0,1,0,0,0,1 @ F,0,0,1,0,0,0,1 @ F,0,0,1,0,0,0,1 @ F,0,0,1,0,0,0,1 @ F,0,0,1,0,0,0,1 @ F,0,0,1,0,0,0,1 @ F,0,0,1,0,0,0,1 @ F,0,0,1,0,0,0,1 @ F,0,0,1,0,0,0,1 @ F,0,0,1,0,0,0,1 @ F,0,0,1,0,0,0,1 @ F,0,0,1,0,0,0,1 @ F,0,0,1,0,0,0,1 @ F,0,0,1,0,0,0,1 @ F,0,0,1,0,0,0,1 @ F,0,0,1,0,0,0,1 @ F,0,0,1,0,0,0,1 @ F,0,0,1,0,0,0,1 @ F,0,0,1,0,0,0,1 @ F,0,0,1,0,0,0,1 @ F,0,0,1,0,0,0,1 @ F,0,0,1,0,0,0,1 @ F,0,0,1,0,0,0,1 @ F,0,0,1,0,0,0,1 @ F,0,0,1,0,0,0,1 @ F,0,0,1,0,0,0,1 @ F,0,0,1,0,0,0,1 @ F,0,0,1,0,0,0,1 @ F,0,0,1,0,0,0,1 @ F,0,0,1,0,0,0,1 @ F,0,0,1,0,0,0,1 @ F,0,0,1,0,0,0,1 @ F,0,0,1,0,0,0,1 @ F,0,0,1,0,0,0,1 @ F,0,0,1,0,0,0,1 @ F,0,0,1,0,0,0,1 @ F,0,0,1,0,0,0,1 @ F,0,0,1,0,0,0,1 @ F,0,0,1,0,0,0,1 @ F,0,0,1,0,0,0,1 @ F,0,0,1,0,0,0,1 @ F,0,0,1,0,0,0,1 @ F,0,0,1,0,0,0,1 @ F,0,0,1,0,0,0,1 @ F,0,0,1,0,0,0,1 @ F,0,0,1,0,0,0,1 @ F,0,0,1,0,0,0,1 @ F,0,0,1,0,0,0,1 @ F,0,0,1,0,0,0,1 @ F,0,0,1,0,0.26458333,0,1 @ F,0,0,1,0,0,0,1 @ F,0,0,1,0,0,0,1 @ F,0,0,1,0,0,0,1 @ F,0,0,1,0,0,0,1 @ F,0,0,1,0,0,0,1"
       radius="0.5"
       unit="px"
       method="auto"
       mode="F"
       chamfer_steps="1"
       flexible="false"
       use_knot_distance="true"
       apply_no_radius="true"
       apply_with_radius="true"
       only_selected="true"
       hide_knots="false" />
    <pattern
       inkscape:collect="always"
       xlink:href="#pattern29"
       preserveAspectRatio="xMidYMid"
       id="pattern35"
       patternTransform="matrix(0.05,0,0,0.05,205.95316,1726.183)" />
    <pattern
       inkscape:collect="always"
       xlink:href="#pattern23"
       preserveAspectRatio="xMidYMid"
       id="pattern29"
       patternTransform="matrix(0.05,0,0,0.05,205.95316,1804.0767)" />
    <pattern
       inkscape:collect="always"
       xlink:href="#shading27"
       preserveAspectRatio="xMidYMid"
       id="pattern23"
       patternTransform="matrix(0.05,0,0,0.05,205.95316,1751.3205)"
       x="32"
       y="-3" />
    <clipPath
       clipPathUnits="userSpaceOnUse"
       id="clipPath52">
      <path
         id="path52"
         style="stroke-width:0.1;stroke-linecap:square;paint-order:markers fill stroke;stop-color:#000000"
         d="m -880.82767,-187.29769 h 1640.84 v 73.28155 h -1640.84 z" />
    </clipPath>
    <pattern
       patternUnits="userSpaceOnUse"
       width="565.45114"
       height="25.387499"
       patternTransform="translate(205.95316,1751.3205)"
       preserveAspectRatio="xMidYMid"
       id="shading27"
       style="fill:#9acd32"
       inkscape:label="Circle halftones shading"
       inkscape:collect="always"
       inkscape:isstock="true">
      <path
         id="use31"
         style="stroke-width:0.487199;stroke-linecap:square;paint-order:markers fill stroke;stop-color:#000000"
         d="m 760.01231,-187.29796 c 0,0.51981 -0.42139,0.9412 -0.9412,0.9412 -0.51981,0 -0.9412,-0.42139 -0.9412,-0.9412 0,-0.51981 0.42139,-0.9412 0.9412,-0.9412 0.51981,0 0.9412,0.42139 0.9412,0.9412 z m -38.03378,0 c 0,0.89093 -0.72224,1.61318 -1.61318,1.61318 -0.89093,0 -1.61318,-0.72225 -1.61318,-1.61318 0,-0.89093 0.72225,-1.61318 1.61318,-1.61318 0.89094,0 1.61318,0.72225 1.61318,1.61318 z m -38.03377,0 c 0,1.26206 -1.02311,2.28516 -2.28516,2.28516 -1.26206,0 -2.28516,-1.0231 -2.28516,-2.28516 0,-1.26206 1.0231,-2.28516 2.28516,-2.28516 1.26205,0 2.28516,1.0231 2.28516,2.28516 z m -38.03378,0 c 0,1.63318 -1.32396,2.95714 -2.95714,2.95714 -1.63319,0 -2.95714,-1.32396 -2.95714,-2.95714 0,-1.63318 1.32396,-2.95714 2.95714,-2.95714 1.63318,0 2.95714,1.32396 2.95714,2.95714 z m -38.03378,0 c 0,2.00431 -1.62481,3.62912 -3.62912,3.62912 -2.00431,0 -3.62912,-1.62481 -3.62912,-3.62912 0,-2.00431 1.62481,-3.62912 3.62912,-3.62912 2.00431,0 3.62912,1.62481 3.62912,3.62912 z m -38.03378,0 c 0,2.37543 -1.92566,4.3011 -4.3011,4.3011 -2.37543,0 -4.3011,-1.92567 -4.3011,-4.3011 0,-2.37543 1.92567,-4.3011 4.3011,-4.3011 2.37544,0 4.3011,1.92567 4.3011,4.3011 z m -38.03377,0 c 0,2.74656 -2.22653,4.97308 -4.97308,4.97308 -2.74656,0 -4.97308,-2.22652 -4.97308,-4.97308 0,-2.74655 2.22652,-4.97308 4.97308,-4.97308 2.74655,0 4.97308,2.22653 4.97308,4.97308 z m -38.03378,0 c 0,3.11768 -2.52738,5.64506 -5.64506,5.64506 -3.11768,0 -5.64506,-2.52738 -5.64506,-5.64506 0,-3.11768 2.52738,-5.64506 5.64506,-5.64506 3.11768,0 5.64506,2.52738 5.64506,5.64506 z m -38.03378,0 c 0,3.48881 -2.82823,6.31704 -6.31704,6.31704 -3.4888,0 -6.31704,-2.82823 -6.31704,-6.31704 0,-3.4888 2.82824,-6.31704 6.31704,-6.31704 3.48881,0 6.31704,2.82824 6.31704,6.31704 z m -38.03378,0 c 0,3.85993 -3.12908,6.98902 -6.98902,6.98902 -3.85993,0 -6.98902,-3.12909 -6.98902,-6.98902 0,-3.85993 3.1291,-6.98902 6.98902,-6.98902 3.85993,0 6.98902,3.12909 6.98902,6.98902 z m -38.03377,0 c 0,4.23106 -3.42995,7.661 -7.661,7.661 -4.23106,0 -7.661,-3.42994 -7.661,-7.661 0,-4.23105 3.42994,-7.661 7.661,-7.661 4.23105,0 7.661,3.42995 7.661,7.661 z m -38.03378,0 c 0,4.60218 -3.7308,8.33298 -8.33298,8.33298 -4.60218,0 -8.33298,-3.7308 -8.33298,-8.33298 0,-4.60218 3.7308,-8.33298 8.33298,-8.33298 4.60218,0 8.33298,3.7308 8.33298,8.33298 z m -38.03378,0 c 0,4.97331 -4.03165,9.00496 -9.00496,9.00496 -4.9733,0 -9.00496,-4.03165 -9.00496,-9.00496 0,-4.9733 4.03166,-9.00496 9.00496,-9.00496 4.9733,0 9.00496,4.03166 9.00496,9.00496 z m -38.03377,0 c 0,5.34443 -4.33252,9.67694 -9.67694,9.67694 -5.34443,0 -9.67694,-4.33251 -9.67694,-9.67694 0,-5.34442 4.33251,-9.67694 9.67694,-9.67694 5.34442,0 9.67694,4.33252 9.67694,9.67694 z m -38.03378,0 c 0,5.71555 -4.63337,10.34893 -10.34892,10.34893 -5.71555,0 -10.34892,-4.63338 -10.34892,-10.34893 0,-5.71555 4.63337,-10.34892 10.34892,-10.34892 5.71555,0 10.34892,4.63337 10.34892,10.34892 z m -38.03378,0 c 0,6.08668 -4.93422,11.02091 -11.0209,11.02091 -6.08668,0 -11.0209,-4.93423 -11.0209,-11.02091 0,-6.08667 4.93423,-11.0209 11.0209,-11.0209 6.08667,0 11.0209,4.93423 11.0209,11.0209 z m -38.03378,0 c 0,6.4578 -5.23507,11.69289 -11.69288,11.69289 -6.4578,0 -11.69288,-5.23509 -11.69288,-11.69289 0,-6.4578 5.23509,-11.69288 11.69288,-11.69288 6.4578,0 11.69288,5.23508 11.69288,11.69288 z m -38.03377,0 c 0,6.82893 -5.53594,12.36487 -12.36486,12.36487 -6.82893,0 -12.364863,-5.53594 -12.364863,-12.36487 0,-6.82892 5.535937,-12.36486 12.364863,-12.36486 6.82892,0 12.36486,5.53594 12.36486,12.36486 z m -38.033781,0 c 0,7.20005 -5.836789,13.03685 -13.036839,13.03685 -7.200051,0 -13.036841,-5.8368 -13.03684,-13.03685 -1e-6,-7.20004 5.836793,-13.03684 13.03684,-13.03684 7.200046,0 13.036839,5.8368 13.036839,13.03684 z m -38.033777,0 c 0,7.57118 -6.137644,13.70883 -13.70882,13.70883 -7.571175,0 -13.7088198,-6.13765 -13.7088197,-13.70883 -10e-8,-7.57117 6.1376487,-13.70882 13.7088197,-13.70882 7.571171,0 13.70882,6.13765 13.70882,13.70882 z m -38.033777,0 c 0,7.9423 -6.4385,14.38081 -14.3808,14.38081 -7.9423,0 -14.3808,-6.43851 -14.3808,-14.38081 0,-7.94229 6.438505,-14.3808 14.3808,-14.3808 7.942295,0 14.3808,6.43851 14.3808,14.3808 z m -38.033777,0 c 0,8.31343 -6.739356,15.05279 -15.05278,15.05279 -8.313425,0 -15.05278,-6.73936 -15.05278,-15.05279 0,-8.31342 6.73936,-15.05278 15.05278,-15.05278 8.313419,0 15.05278,6.73936 15.05278,15.05278 z m -38.033778,0 c 0,8.68455 -7.040211,15.72477 -15.72476,15.72477 -8.68455,0 -15.72476,-7.04022 -15.72476,-15.72477 0,-8.68454 7.04022,-15.72476 15.72476,-15.72476 8.684544,0 15.72476,7.04022 15.72476,15.72476 z m -38.03378,0 c 0,9.05568 -7.34106,16.39675 -16.39674,16.39675 -9.05567,0 -16.39674,-7.34107 -16.39674,-16.39675 0,-9.05566 7.34108,-16.39674 16.39674,-16.39674 9.05567,0 16.39674,7.34108 16.39674,16.39674 z m -38.03377,0 c 0,9.4268 -7.64193,17.06873 -17.06872,17.06873 -9.4268,0 -17.06872,-7.64193 -17.06872,-17.06873 0,-9.42679 7.64192,-17.06872 17.06872,-17.06872 9.42679,0 17.06872,7.64193 17.06872,17.06872 z m -38.03378,0 c 0,9.79793 -7.94278,17.74071 -17.7407,17.74071 -9.79792,0 -17.7407,-7.94278 -17.7407,-17.74071 0,-9.79791 7.94278,-17.7407 17.7407,-17.7407 9.79791,0 17.7407,7.94279 17.7407,17.7407 z m -38.03378,0 c 0,10.16905 -8.24363,18.41269 -18.41268,18.41269 -10.16905,0 -18.41268,-8.24364 -18.41268,-18.41269 0,-10.16904 8.24364,-18.41268 18.41268,-18.41268 10.16904,0 18.41268,8.24364 18.41268,18.41268 z m -38.03378,0 c 0,10.54017 -8.54448,19.08467 -19.08466,19.08467 -10.54017,0 -19.08466,-8.5445 -19.08466,-19.08467 0,-10.54016 8.5445,-19.08466 19.08466,-19.08466 10.54017,0 19.08466,8.5445 19.08466,19.08466 z m -38.03377,0 c 0,10.9113 -8.84535,19.75665 -19.75664,19.75665 -10.9113,0 -19.75664,-8.84535 -19.75664,-19.75665 0,-10.91129 8.84535,-19.75664 19.75664,-19.75664 10.91129,0 19.75664,8.84535 19.75664,19.75664 z m -38.03378,0 c 0,11.28242 -9.1462,20.42863 -20.42862,20.42863 -11.28242,0 -20.42862,-9.14621 -20.42862,-20.42863 0,-11.28241 9.14621,-20.42862 20.42862,-20.42862 11.28241,0 20.42862,9.14621 20.42862,20.42862 z m -38.03378,0 c 0,11.65355 -9.44705,21.10061 -21.1006,21.10061 -11.65354,0 -21.1006,-9.44706 -21.1006,-21.10061 0,-11.65353 9.44706,-21.1006 21.1006,-21.1006 11.65354,0 21.1006,9.44707 21.1006,21.1006 z m -38.03377,0 c 0,12.02467 -9.74792,21.77259 -21.77258,21.77259 -12.02467,0 -21.77258,-9.74792 -21.77258,-21.77259 0,-12.02466 9.74791,-21.77258 21.77258,-21.77258 12.02466,0 21.77258,9.74792 21.77258,21.77258 z m -38.03378,0 c 0,12.3958 -10.04877,22.44457 -22.44456,22.44457 -12.3958,0 -22.44456,-10.04877 -22.44456,-22.44457 0,-12.39578 10.04877,-22.44456 22.44456,-22.44456 12.39578,0 22.44456,10.04878 22.44456,22.44456 z m -38.03378,0 c 0,12.76692 -10.34962,23.11655 -23.11654,23.11655 -12.76692,0 -23.11654,-10.34963 -23.11654,-23.11655 0,-12.76691 10.34963,-23.11654 23.11654,-23.11654 12.76691,0 23.11654,10.34963 23.11654,23.11654 z m -38.03378,0 c 0,13.13805 -10.65047,23.78853 -23.78852,23.78853 -13.13804,0 -23.78852,-10.65048 -23.78852,-23.78853 0,-13.13803 10.65049,-23.78852 23.78852,-23.78852 13.13804,0 23.78852,10.65049 23.78852,23.78852 z m -38.03377,0 c 0,13.50917 -10.95134,24.46051 -24.4605,24.46051 -13.50917,0 -24.4605,-10.95134 -24.4605,-24.46051 0,-13.50915 10.95134,-24.4605 24.4605,-24.4605 13.50915,0 24.4605,10.95135 24.4605,24.4605 z m -38.03378,0 c 0,13.8803 -11.25219,25.13249 -25.13248,25.13249 -13.88029,0 -25.13248,-11.25219 -25.13248,-25.13249 0,-13.88028 11.2522,-25.13248 25.13248,-25.13248 13.88028,0 25.13248,11.2522 25.13248,25.13248 z m -38.03378,0 c 0,14.25142 -11.55304,25.80447 -25.80446,25.80447 -14.25141,0 -25.80446,-11.55305 -25.80446,-25.80447 0,-14.2514 11.55305,-25.80446 25.80446,-25.80446 14.25141,0 25.80446,11.55306 25.80446,25.80446 z m -38.03378,0 c 0,14.62255 -11.85389,26.47645 -26.47644,26.47645 -14.62254,0 -26.47644,-11.8539 -26.47644,-26.47645 0,-14.62253 11.85391,-26.47644 26.47644,-26.47644 14.62254,0 26.47644,11.85391 26.47644,26.47644 z m -38.03377,0 c 0,14.99367 -12.15476,27.14843 -27.14842,27.14843 -14.99367,0 -27.14842,-12.15476 -27.14842,-27.14843 0,-14.99365 12.15476,-27.14842 27.14842,-27.14842 14.99365,0 27.14842,12.15477 27.14842,27.14842 z m -38.03378,1e-5 c 0,15.36479 -12.45561,27.82041 -27.8204,27.82041 -15.36479,0 -27.8204,-12.45562 -27.8204,-27.82041 0,-15.36478 12.45562,-27.8204 27.8204,-27.8204 15.36478,0 27.8204,12.45562 27.8204,27.8204 z m 1466.15637,36.6408 c 0,0.51981 -0.42139,0.9412 -0.9412,0.9412 -0.51981,0 -0.9412,-0.42139 -0.9412,-0.9412 0,-0.51981 0.42139,-0.9412 0.9412,-0.9412 0.51981,0 0.9412,0.42139 0.9412,0.9412 z m -38.03377,0 c 0,0.89093 -0.72225,1.61318 -1.61318,1.61318 -0.89094,0 -1.61318,-0.72225 -1.61318,-1.61318 0,-0.89093 0.72224,-1.61318 1.61318,-1.61318 0.89093,0 1.61318,0.72225 1.61318,1.61318 z m -38.03378,0 c 0,1.26206 -1.0231,2.28516 -2.28516,2.28516 -1.26206,0 -2.28516,-1.0231 -2.28516,-2.28516 0,-1.26206 1.0231,-2.28516 2.28516,-2.28516 1.26206,0 2.28516,1.0231 2.28516,2.28516 z m -38.03378,0 c 0,1.63318 -1.32395,2.95714 -2.95714,2.95714 -1.63318,0 -2.95714,-1.32396 -2.95714,-2.95714 0,-1.63318 1.32396,-2.95714 2.95714,-2.95714 1.63318,0 2.95714,1.32396 2.95714,2.95714 z m -38.03378,0 c 0,2.00431 -1.62481,3.62912 -3.62912,3.62912 -2.0043,0 -3.62912,-1.62481 -3.62912,-3.62912 0,-2.00431 1.62482,-3.62912 3.62912,-3.62912 2.00431,0 3.62912,1.62481 3.62912,3.62912 z m -38.03377,0 c 0,2.37543 -1.92567,4.3011 -4.3011,4.3011 -2.37543,0 -4.3011,-1.92567 -4.3011,-4.3011 0,-2.37543 1.92567,-4.3011 4.3011,-4.3011 2.37543,0 4.3011,1.92567 4.3011,4.3011 z m -38.03378,0 c 0,2.74656 -2.22652,4.97308 -4.97308,4.97308 -2.74656,0 -4.97308,-2.22652 -4.97308,-4.97308 0,-2.74655 2.22652,-4.97308 4.97308,-4.97308 2.74656,0 4.97308,2.22653 4.97308,4.97308 z m -38.03378,0 c 0,3.11768 -2.52738,5.64506 -5.64506,5.64506 -3.11768,0 -5.64506,-2.52738 -5.64506,-5.64506 0,-3.11768 2.52738,-5.64506 5.64506,-5.64506 3.11768,0 5.64506,2.52738 5.64506,5.64506 z m -38.03377,0 c 0,3.48881 -2.82824,6.31704 -6.31704,6.31704 -3.48881,0 -6.31704,-2.82823 -6.31704,-6.31704 0,-3.4888 2.82823,-6.31704 6.31704,-6.31704 3.4888,0 6.31704,2.82824 6.31704,6.31704 z m -38.03378,0 c 0,3.85993 -3.12909,6.98902 -6.98902,6.98902 -3.85993,0 -6.98902,-3.12909 -6.98902,-6.98902 0,-3.85993 3.12909,-6.98902 6.98902,-6.98902 3.85993,0 6.98902,3.12909 6.98902,6.98902 z m -38.03378,0 c 0,4.23106 -3.42994,7.661 -7.661,7.661 -4.23105,0 -7.661,-3.42994 -7.661,-7.661 0,-4.23105 3.42995,-7.661 7.661,-7.661 4.23105,0 7.661,3.42995 7.661,7.661 z m -38.03378,0 c 0,4.60218 -3.7308,8.33298 -8.33298,8.33298 -4.60218,0 -8.33298,-3.7308 -8.33298,-8.33298 0,-4.60218 3.73081,-8.33298 8.33298,-8.33298 4.60218,0 8.33298,3.7308 8.33298,8.33298 z m -38.03377,0 c 0,4.97331 -4.03166,9.00496 -9.00496,9.00496 -4.97331,0 -9.00496,-4.03165 -9.00496,-9.00496 0,-4.9733 4.03166,-9.00496 9.00496,-9.00496 4.9733,0 9.00496,4.03166 9.00496,9.00496 z m -38.03378,0 c 0,5.34443 -4.33251,9.67694 -9.67694,9.67694 -5.34443,0 -9.67694,-4.33251 -9.67694,-9.67694 0,-5.34442 4.33251,-9.67694 9.67694,-9.67694 5.34442,0 9.67694,4.33252 9.67694,9.67694 z m -38.03378,0 c 0,5.71555 -4.63336,10.34893 -10.34892,10.34893 -5.71555,0 -10.34892,-4.63338 -10.34892,-10.34893 0,-5.71555 4.63337,-10.34892 10.34892,-10.34892 5.71555,0 10.34892,4.63337 10.34892,10.34892 z m -38.03377,0 c 0,6.08668 -4.93423,11.02091 -11.0209,11.02091 -6.08668,0 -11.0209,-4.93423 -11.0209,-11.02091 0,-6.08667 4.93422,-11.0209 11.0209,-11.0209 6.08667,0 11.0209,4.93423 11.0209,11.0209 z m -38.033782,0 c 0,6.4578 -5.235078,11.69289 -11.69288,11.69289 -6.457802,0 -11.69288,-5.23509 -11.69288,-11.69289 0,-6.4578 5.235082,-11.69288 11.69288,-11.69288 6.457798,0 11.69288,5.23508 11.69288,11.69288 z m -38.033777,0 c 0,6.82893 -5.535934,12.36487 -12.36486,12.36487 -6.828927,0 -12.36486,-5.53594 -12.36486,-12.36487 0,-6.82892 5.535937,-12.36486 12.36486,-12.36486 6.828922,0 12.36486,5.53594 12.36486,12.36486 z m -38.033778,0 c 0,7.20005 -5.836789,13.03685 -13.0368396,13.03685 -7.20005105,0 -13.0368401,-5.8368 -13.03684,-13.03685 -1e-7,-7.20004 5.83679345,-13.03684 13.03684,-13.03684 7.2000466,0 13.0368396,5.8368 13.0368396,13.03684 z m -38.033777,0 c 0,7.57118 -6.137644,13.70883 -13.70882,13.70883 -7.571175,0 -13.70882,-6.13765 -13.70882,-13.70883 0,-7.57117 6.137649,-13.70882 13.70882,-13.70882 7.571171,0 13.70882,6.13765 13.70882,13.70882 z m -38.033777,0 c 0,7.9423 -6.4385,14.38081 -14.3808,14.38081 -7.9423,0 -14.3808,-6.43851 -14.3808,-14.38081 0,-7.94229 6.438505,-14.3808 14.3808,-14.3808 7.942295,0 14.3808,6.43851 14.3808,14.3808 z m -38.033777,0 c 0,8.31343 -6.739352,15.05279 -15.052782,15.05279 -8.31342,0 -15.05278,-6.73936 -15.05278,-15.05279 0,-8.31342 6.73936,-15.05278 15.05278,-15.05278 8.31342,0 15.052782,6.73936 15.052782,15.05278 z m -38.033782,0 c 0,8.68455 -7.04021,15.72477 -15.72476,15.72477 -8.68454,0 -15.72476,-7.04022 -15.72476,-15.72477 0,-8.68454 7.04022,-15.72476 15.72476,-15.72476 8.68455,0 15.72476,7.04022 15.72476,15.72476 z m -38.03377,0 c 0,9.05568 -7.34107,16.39675 -16.39674,16.39675 -9.05568,0 -16.39674,-7.34107 -16.39674,-16.39675 0,-9.05566 7.34107,-16.39674 16.39674,-16.39674 9.05566,0 16.39674,7.34108 16.39674,16.39674 z m -38.03378,0 c 0,9.4268 -7.64192,17.06873 -17.06872,17.06873 -9.4268,0 -17.06872,-7.64193 -17.06872,-17.06873 0,-9.42679 7.64193,-17.06872 17.06872,-17.06872 9.42679,0 17.06872,7.64193 17.06872,17.06872 z m -38.03378,0 c 0,9.79793 -7.94277,17.74071 -17.7407,17.74071 -9.79792,0 -17.7407,-7.94278 -17.7407,-17.74071 0,-9.79791 7.94279,-17.7407 17.7407,-17.7407 9.79792,0 17.7407,7.94279 17.7407,17.7407 z m -38.03377,0 c 0,10.16905 -8.24364,18.41269 -18.41268,18.41269 -10.16905,0 -18.41268,-8.24364 -18.41268,-18.41269 0,-10.16904 8.24363,-18.41268 18.41268,-18.41268 10.16904,0 18.41268,8.24364 18.41268,18.41268 z m -38.03378,0 c 0,10.54017 -8.54449,19.08467 -19.08466,19.08467 -10.54017,0 -19.08466,-8.5445 -19.08466,-19.08467 0,-10.54016 8.54449,-19.08466 19.08466,-19.08466 10.54016,0 19.08466,8.5445 19.08466,19.08466 z m -38.03378,0 c 0,10.9113 -8.84534,19.75665 -19.75664,19.75665 -10.9113,0 -19.75664,-8.84535 -19.75664,-19.75665 0,-10.91129 8.84535,-19.75664 19.75664,-19.75664 10.91129,0 19.75664,8.84535 19.75664,19.75664 z m -38.03378,0 c 0,11.28242 -9.1462,20.42863 -20.42862,20.42863 -11.28242,0 -20.42862,-9.14621 -20.42862,-20.42863 0,-11.28241 9.14621,-20.42862 20.42862,-20.42862 11.28242,0 20.42862,9.14621 20.42862,20.42862 z m -38.03377,0 c 0,11.65355 -9.44706,21.10061 -21.1006,21.10061 -11.65355,0 -21.1006,-9.44706 -21.1006,-21.10061 0,-11.65353 9.44706,-21.1006 21.1006,-21.1006 11.65353,0 21.1006,9.44707 21.1006,21.1006 z m -38.03378,0 c 0,12.02467 -9.74791,21.77259 -21.77258,21.77259 -12.02467,0 -21.77258,-9.74792 -21.77258,-21.77259 0,-12.02466 9.74792,-21.77258 21.77258,-21.77258 12.02466,0 21.77258,9.74792 21.77258,21.77258 z m -38.03378,0 c 0,12.3958 -10.04876,22.44457 -22.44456,22.44457 -12.39579,0 -22.44456,-10.04877 -22.44456,-22.44457 0,-12.39578 10.04878,-22.44456 22.44456,-22.44456 12.39579,0 22.44456,10.04878 22.44456,22.44456 z m -38.03378,0 c 0,12.76692 -10.34962,23.11655 -23.11654,23.11655 -12.76691,0 -23.11654,-10.34963 -23.11654,-23.11655 0,-12.76691 10.34963,-23.11654 23.11654,-23.11654 12.76691,0 23.11654,10.34963 23.11654,23.11654 z m -38.03377,0 c 0,13.13805 -10.65048,23.78853 -23.78852,23.78853 -13.13805,0 -23.78852,-10.65048 -23.78852,-23.78853 0,-13.13803 10.65048,-23.78852 23.78852,-23.78852 13.13803,0 23.78852,10.65049 23.78852,23.78852 z m -38.03378,0 c 0,13.50917 -10.95133,24.46051 -24.4605,24.46051 -13.50917,0 -24.4605,-10.95134 -24.4605,-24.46051 0,-13.50915 10.95134,-24.4605 24.4605,-24.4605 13.50916,0 24.4605,10.95135 24.4605,24.4605 z m -38.03378,0 c 0,13.8803 -11.25219,25.13249 -25.13248,25.13249 -13.88029,0 -25.13248,-11.25219 -25.13248,-25.13249 0,-13.88028 11.2522,-25.13248 25.13248,-25.13248 13.88029,0 25.13248,11.2522 25.13248,25.13248 z m -38.03377,0 c 0,14.25142 -11.55305,25.80447 -25.80446,25.80447 -14.25142,0 -25.80446,-11.55305 -25.80446,-25.80447 0,-14.2514 11.55305,-25.80446 25.80446,-25.80446 14.2514,0 25.80446,11.55306 25.80446,25.80446 z m -38.03378,0 c 0,14.62255 -11.8539,26.47645 -26.47644,26.47645 -14.62254,0 -26.47644,-11.8539 -26.47644,-26.47645 0,-14.62253 11.85391,-26.47644 26.47644,-26.47644 14.62253,0 26.47644,11.85391 26.47644,26.47644 z m -38.03378,0 c 0,14.99367 -12.15475,27.14843 -27.14842,27.14843 -14.99366,0 -27.14842,-12.15476 -27.14842,-27.14843 0,-14.99365 12.15477,-27.14842 27.14842,-27.14842 14.99366,0 27.14842,12.15477 27.14842,27.14842 z m -38.03378,1e-5 c 0,15.36479 -12.45561,27.82041 -27.8204,27.82041 -15.36479,0 -27.8204,-12.45562 -27.8204,-27.82041 0,-15.36478 12.45562,-27.8204 27.8204,-27.8204 15.36478,0 27.8204,12.45562 27.8204,27.8204 z m 1576.54581,36.6408 c 0,0.51981 -0.42139,0.9412 -0.9412,0.9412 -0.51981,0 -0.9412,-0.42139 -0.9412,-0.9412 0,-0.51981 0.42139,-0.9412 0.9412,-0.9412 0.51981,0 0.9412,0.42139 0.9412,0.9412 z m -38.03378,0 c 0,0.89093 -0.72224,1.61318 -1.61318,1.61318 -0.89093,0 -1.61318,-0.72225 -1.61318,-1.61318 0,-0.89093 0.72225,-1.61318 1.61318,-1.61318 0.89094,0 1.61318,0.72225 1.61318,1.61318 z m -38.03377,0 c 0,1.26206 -1.02311,2.28516 -2.28516,2.28516 -1.26206,0 -2.28516,-1.0231 -2.28516,-2.28516 0,-1.26206 1.0231,-2.28516 2.28516,-2.28516 1.26205,0 2.28516,1.0231 2.28516,2.28516 z m -38.03378,0 c 0,1.63318 -1.32396,2.95714 -2.95714,2.95714 -1.63319,0 -2.95714,-1.32396 -2.95714,-2.95714 0,-1.63318 1.32396,-2.95714 2.95714,-2.95714 1.63318,0 2.95714,1.32396 2.95714,2.95714 z m -38.03378,0 c 0,2.00431 -1.62481,3.62912 -3.62912,3.62912 -2.00431,0 -3.62912,-1.62481 -3.62912,-3.62912 0,-2.00431 1.62481,-3.62912 3.62912,-3.62912 2.00431,0 3.62912,1.62481 3.62912,3.62912 z m -38.03378,0 c 0,2.37543 -1.92566,4.3011 -4.3011,4.3011 -2.37543,0 -4.3011,-1.92567 -4.3011,-4.3011 0,-2.37543 1.92567,-4.3011 4.3011,-4.3011 2.37544,0 4.3011,1.92567 4.3011,4.3011 z m -38.03377,0 c 0,2.74656 -2.22653,4.97308 -4.97308,4.97308 -2.74656,0 -4.97308,-2.22652 -4.97308,-4.97308 0,-2.74655 2.22652,-4.97308 4.97308,-4.97308 2.74655,0 4.97308,2.22653 4.97308,4.97308 z m -38.03378,0 c 0,3.11768 -2.52738,5.64506 -5.64506,5.64506 -3.11768,0 -5.64506,-2.52738 -5.64506,-5.64506 0,-3.11768 2.52738,-5.64506 5.64506,-5.64506 3.11768,0 5.64506,2.52738 5.64506,5.64506 z m -38.03378,0 c 0,3.48881 -2.82823,6.31704 -6.31704,6.31704 -3.4888,0 -6.31704,-2.82823 -6.31704,-6.31704 0,-3.4888 2.82824,-6.31704 6.31704,-6.31704 3.48881,0 6.31704,2.82824 6.31704,6.31704 z m -38.03378,0 c 0,3.85993 -3.12908,6.98902 -6.98902,6.98902 -3.85993,0 -6.98902,-3.12909 -6.98902,-6.98902 0,-3.85993 3.1291,-6.98902 6.98902,-6.98902 3.85993,0 6.98902,3.12909 6.98902,6.98902 z m -38.03377,0 c 0,4.23106 -3.42995,7.661 -7.661,7.661 -4.23106,0 -7.661,-3.42994 -7.661,-7.661 0,-4.23105 3.42994,-7.661 7.661,-7.661 4.23105,0 7.661,3.42995 7.661,7.661 z m -38.03378,0 c 0,4.60218 -3.7308,8.33298 -8.33298,8.33298 -4.60218,0 -8.33298,-3.7308 -8.33298,-8.33298 0,-4.60218 3.7308,-8.33298 8.33298,-8.33298 4.60218,0 8.33298,3.7308 8.33298,8.33298 z m -38.03378,0 c 0,4.97331 -4.03165,9.00496 -9.00496,9.00496 -4.9733,0 -9.00496,-4.03165 -9.00496,-9.00496 0,-4.9733 4.03166,-9.00496 9.00496,-9.00496 4.9733,0 9.00496,4.03166 9.00496,9.00496 z m -38.03377,0 c 0,5.34443 -4.33252,9.67694 -9.67694,9.67694 -5.34443,0 -9.67694,-4.33251 -9.67694,-9.67694 0,-5.34442 4.33251,-9.67694 9.67694,-9.67694 5.34442,0 9.67694,4.33252 9.67694,9.67694 z m -38.03378,0 c 0,5.71555 -4.63337,10.34893 -10.34892,10.34893 -5.71555,0 -10.34892,-4.63338 -10.34892,-10.34893 0,-5.71555 4.63337,-10.34892 10.34892,-10.34892 5.71555,0 10.34892,4.63337 10.34892,10.34892 z m -38.03378,0 c 0,6.08668 -4.93422,11.02091 -11.0209,11.02091 -6.08668,0 -11.0209,-4.93423 -11.0209,-11.02091 0,-6.08667 4.93423,-11.0209 11.0209,-11.0209 6.08667,0 11.0209,4.93423 11.0209,11.0209 z m -38.03378,0 c 0,6.4578 -5.23507,11.69289 -11.69288,11.69289 -6.4578,0 -11.69288,-5.23509 -11.69288,-11.69289 0,-6.4578 5.23509,-11.69288 11.69288,-11.69288 6.4578,0 11.69288,5.23508 11.69288,11.69288 z m -38.03377,0 c 0,6.82893 -5.53594,12.36487 -12.36486,12.36487 -6.82893,0 -12.364863,-5.53594 -12.364863,-12.36487 0,-6.82892 5.535937,-12.36486 12.364863,-12.36486 6.82892,0 12.36486,5.53594 12.36486,12.36486 z m -38.033781,0 c 0,7.20005 -5.836789,13.03685 -13.036839,13.03685 -7.200051,0 -13.036841,-5.8368 -13.03684,-13.03685 -1e-6,-7.20004 5.836793,-13.03684 13.03684,-13.03684 7.200046,0 13.036839,5.8368 13.036839,13.03684 z m -38.033777,0 c 0,7.57118 -6.137644,13.70883 -13.70882,13.70883 -7.571175,0 -13.7088198,-6.13765 -13.7088197,-13.70883 -10e-8,-7.57117 6.1376487,-13.70882 13.7088197,-13.70882 7.571171,0 13.70882,6.13765 13.70882,13.70882 z m -38.033777,0 c 0,7.9423 -6.4385,14.380808 -14.3808,14.380808 -7.9423,0 -14.3808,-6.438508 -14.3808,-14.380808 0,-7.94229 6.438505,-14.3808 14.3808,-14.3808 7.942295,0 14.3808,6.43851 14.3808,14.3808 z m -38.033777,0 c 0,8.31343 -6.739356,15.052788 -15.05278,15.052788 -8.313425,0 -15.05278,-6.739358 -15.05278,-15.052788 0,-8.31342 6.73936,-15.05278 15.05278,-15.05278 8.313419,0 15.05278,6.73936 15.05278,15.05278 z m -38.033778,0 c 0,8.68455 -7.040211,15.724768 -15.72476,15.724768 -8.68455,0 -15.72476,-7.040218 -15.72476,-15.724768 0,-8.68454 7.04022,-15.72476 15.72476,-15.72476 8.684544,0 15.72476,7.04022 15.72476,15.72476 z m -38.03378,0 c 0,9.05568 -7.34106,16.396749 -16.39674,16.396749 -9.05567,0 -16.39674,-7.341069 -16.39674,-16.396749 0,-9.05566 7.34108,-16.39674 16.39674,-16.39674 9.05567,0 16.39674,7.34108 16.39674,16.39674 z m -38.03377,0 c 0,9.4268 -7.64193,17.068729 -17.06872,17.068729 -9.4268,0 -17.06872,-7.641929 -17.06872,-17.068729 0,-9.42679 7.64192,-17.06872 17.06872,-17.06872 9.42679,0 17.06872,7.64193 17.06872,17.06872 z m -38.03378,0 c 0,9.79793 -7.94278,17.740709 -17.7407,17.740709 -9.79792,0 -17.7407,-7.942779 -17.7407,-17.740709 0,-9.79791 7.94278,-17.7407 17.7407,-17.7407 9.79791,0 17.7407,7.94279 17.7407,17.7407 z m -38.03378,0 c 0,10.16905 -8.24363,18.41269 -18.41268,18.41269 -10.16905,0 -18.41268,-8.24364 -18.41268,-18.41269 0,-10.16904 8.24364,-18.41268 18.41268,-18.41268 10.16904,0 18.41268,8.24364 18.41268,18.41268 z m -38.03378,0 c 0,10.54017 -8.54448,19.08467 -19.08466,19.08467 -10.54017,0 -19.08466,-8.5445 -19.08466,-19.08467 0,-10.54016 8.5445,-19.08466 19.08466,-19.08466 10.54017,0 19.08466,8.5445 19.08466,19.08466 z m -38.03377,0 c 0,10.9113 -8.84535,19.756651 -19.75664,19.756651 -10.9113,0 -19.75664,-8.845351 -19.75664,-19.756651 0,-10.91129 8.84535,-19.75664 19.75664,-19.75664 10.91129,0 19.75664,8.84535 19.75664,19.75664 z m -38.03378,0 c 0,11.28242 -9.1462,20.428631 -20.42862,20.428631 -11.28242,0 -20.42862,-9.146211 -20.42862,-20.428631 0,-11.28241 9.14621,-20.42862 20.42862,-20.42862 11.28241,0 20.42862,9.14621 20.42862,20.42862 z m -38.03378,0 c 0,11.65355 -9.44705,21.100611 -21.1006,21.100611 -11.65354,0 -21.1006,-9.447061 -21.1006,-21.100611 0,-11.65353 9.44706,-21.1006 21.1006,-21.1006 11.65354,0 21.1006,9.44707 21.1006,21.1006 z m -38.03377,0 c 0,12.02467 -9.74792,21.772592 -21.77258,21.772592 -12.02467,0 -21.77258,-9.747922 -21.77258,-21.772592 0,-12.02466 9.74791,-21.77258 21.77258,-21.77258 12.02466,0 21.77258,9.74792 21.77258,21.77258 z m -38.03378,0 c 0,12.3958 -10.04877,22.444572 -22.44456,22.444572 -12.3958,0 -22.44456,-10.048772 -22.44456,-22.444572 0,-12.39578 10.04877,-22.44456 22.44456,-22.44456 12.39578,0 22.44456,10.04878 22.44456,22.44456 z m -38.03378,0 c 0,12.76692 -10.34962,23.116552 -23.11654,23.116552 -12.76692,0 -23.11654,-10.349632 -23.11654,-23.116552 0,-12.76691 10.34963,-23.11654 23.11654,-23.11654 12.76691,0 23.11654,10.34963 23.11654,23.11654 z m -38.03378,0 c 0,13.13805 -10.65047,23.788533 -23.78852,23.788533 -13.13804,0 -23.78852,-10.650483 -23.78852,-23.788533 0,-13.13803 10.65049,-23.78852 23.78852,-23.78852 13.13804,0 23.78852,10.65049 23.78852,23.78852 z m -38.03377,0 c 0,13.50917 -10.95134,24.460513 -24.4605,24.460513 -13.50917,0 -24.4605,-10.951343 -24.4605,-24.460513 0,-13.50915 10.95134,-24.4605 24.4605,-24.4605 13.50915,0 24.4605,10.95135 24.4605,24.4605 z m -38.03378,0 c 0,13.8803 -11.25219,25.132494 -25.13248,25.132494 -13.88029,0 -25.13248,-11.252194 -25.13248,-25.132494 0,-13.88028 11.2522,-25.13248 25.13248,-25.13248 13.88028,0 25.13248,11.2522 25.13248,25.13248 z m -38.03378,0 c 0,14.251421 -11.55304,25.804474 -25.80446,25.804474 -14.25141,0 -25.80446,-11.553053 -25.80446,-25.804474 0,-14.2514 11.55305,-25.80446 25.80446,-25.80446 14.25141,0 25.80446,11.55306 25.80446,25.80446 z m -38.03378,0 c 0,14.622546 -11.85389,26.476454 -26.47644,26.476454 -14.62254,0 -26.47644,-11.853908 -26.47644,-26.476454 0,-14.62253 11.85391,-26.47644 26.47644,-26.47644 14.62254,0 26.47644,11.85391 26.47644,26.47644 z m -38.03377,0 c 0,14.99367 -12.15476,27.148435 -27.14842,27.148435 -14.99367,0 -27.14842,-12.154765 -27.14842,-27.148435 0,-14.99365 12.15476,-27.14842 27.14842,-27.14842 14.99365,0 27.14842,12.15477 27.14842,27.14842 z m -38.03378,1e-5 c 0,15.364785 -12.45561,27.820405 -27.8204,27.820405 -15.36479,0 -27.8204,-12.45562 -27.8204,-27.820405 0,-15.36478 12.45562,-27.8204 27.8204,-27.8204 15.36478,0 27.8204,12.45562 27.8204,27.8204 z"
         sodipodi:nodetypes="ssssssssss"
         transform="matrix(0.3464378,0,0,0.3464378,302.15415,64.887)"
         clip-path="url(#clipPath52)" />
    </pattern>
    <inkscape:path-effect
       effect="fillet_chamfer"
       id="path-effect2"
       is_visible="true"
       lpeversion="1"
       nodesatellites_param="F,0,0,1,0,0,0,1 @ F,0,0,1,0,7.4083333,0,1 @ F,0,0,1,0,7.4083333,0,1 @ F,0,0,1,0,7.4083333,0,1 @ F,0,0,1,0,7.4083333,0,1"
       radius="29"
       unit="px"
       method="auto"
       mode="F"
       chamfer_steps="1"
       flexible="false"
       use_knot_distance="true"
       apply_no_radius="true"
       apply_with_radius="true"
       only_selected="false"
       hide_knots="false" />
  </defs>
  <g
     inkscape:label="Layer 1"
     inkscape:groupmode="layer"
     id="layer1">
    <text
       xml:space="preserve"
       style="font-size:3.175px;letter-spacing:-0.0339023px;white-space:pre;inline-size:14.1798;display:inline;fill:#000000;stroke-width:0.264583"
       x="46.7453"
       y="21.935204"
       id="text1"
       transform="matrix(7.8042923,0,0,7.8042923,-281.4619,-129.74758)"><tspan
         x="46.7453"
         y="21.935204"
         id="tspan4"><tspan
           style="font-weight:800;font-family:Iosevka;-inkscape-font-specification:'Iosevka Ultra-Bold';fill:#9acd32"
           id="tspan1">LCARS</tspan></tspan></text>
    <path
       id="rect1"
       style="fill:#9acd32;fill-opacity:1;stroke-width:0.210618"
       d="m 148.15995,22.348577 v 19.290812 h 12.22406 a 9.6453438,9.6453438 0 0 0 9.6454,-9.645406 9.6453438,9.6453438 0 0 0 -9.6454,-9.645406 z" />
    <rect
       style="fill:#9acd32;stroke-width:0.033225"
       id="rect3"
       width="0.76036465"
       height="18.949757"
       x="78.881348"
       y="22.689632" />
    <rect
       style="fill:#9acd32;stroke-width:0.0565145"
       id="rect2"
       width="2.1999485"
       height="18.949757"
       x="75.391075"
       y="22.689632" />
    <rect
       style="fill:#9acd32;stroke-width:0.111146"
       id="rect4"
       width="8.5090036"
       height="18.949757"
       x="65.591743"
       y="22.689632" />
    <rect
       style="fill:#9acd32;stroke-width:0.033225"
       id="rect5"
       width="0.76036465"
       height="18.949757"
       x="80.932037"
       y="22.689632" />
    <path
       id="path31"
       style="fill:#9acd32;fill-opacity:1;stroke-width:0.210618"
       d="m 143.74316,49.94935 v 0.2682 c 0.18965,0.0629 0.37231,0.13885 0.54674,0.22944 0.37997,0.18869 0.71864,0.4374 1.01596,0.74621 0.31384,0.29168 0.56968,0.62615 0.76791,1.00356 0.19823,0.37743 0.33854,0.78032 0.42116,1.20922 0.0991,0.42888 0.14883,0.85782 0.14883,1.28675 v 0.077 h -2.9006 v 4.23333 c 0.0754,0.055 0.15111,0.11004 0.2248,0.16743 0.39645,0.30881 0.76776,0.65144 1.11466,1.02888 0.36342,0.37744 0.66895,0.78952 0.91674,1.23558 0.2643,0.42888 0.46264,0.89202 0.59479,1.38958 0.14865,0.4975 0.22325,1.00354 0.22325,1.51825 0,0.46325 -0.058,0.91771 -0.17364,1.36375 -0.0991,0.42887 -0.25605,0.84096 -0.47077,1.23558 -0.19823,0.39462 -0.46234,0.74645 -0.79272,1.05523 -0.31383,0.30881 -0.66908,0.55752 -1.06556,0.74621 -0.18454,0.0917 -0.37531,0.16817 -0.57155,0.23151 v 0.2651 h 12.22406 a 9.6453438,9.6453438 0 0 0 9.64541,-9.64541 9.6453438,9.6453438 0 0 0 -9.64541,-9.6454 z m 0,14.36605 v 0.0692 c 2.1e-4,-0.0138 0.002,-0.0275 0.002,-0.0413 0,-0.009 -0.001,-0.0185 -0.002,-0.0279 z"
       inkscape:export-filename="./lcars.png"
       inkscape:export-xdpi="180"
       inkscape:export-ydpi="180" />
    <rect
       style="fill:url(#pattern35);fill-opacity:1;stroke-width:0.122207"
       id="rect31"
       width="10.286784"
       height="18.949757"
       x="74.629913"
       y="50.119778" />
    <text
       xml:space="preserve"
       style="font-size:3.175px;letter-spacing:-0.0339023px;white-space:pre;inline-size:14.1798;display:inline;fill:#000000;stroke-width:0.264583"
       x="46.7453"
       y="21.935204"
       id="text33"
       transform="matrix(7.8042923,0,0,8.1053063,-280.60244,-108.73951)"><tspan
         x="46.7453"
         y="21.935204"
         id="tspan6"><tspan
           style="font-weight:800;font-family:Iosevka;-inkscape-font-specification:'Iosevka Ultra-Bold';fill:#9acd32"
           id="tspan5">LCARS</tspan></tspan></text>
    <rect
       style="fill:#9acd32;stroke-width:0.111146"
       id="rect33"
       width="8.5090036"
       height="18.949757"
       x="66.650078"
       y="50.119778" />
    <path
       id="rect34"
       style="fill:#8470ff;fill-opacity:1;stroke-width:0.267357"
       d="m 137.27896,70.77759 c -0.19851,0 -0.39643,0.0177 -0.59376,0.0543 -0.21576,0.04 -0.4228,0.11468 -0.61547,0.2191 -0.0924,0.05 -0.17976,0.10827 -0.26303,0.1726 h -1.75907 c -0.12364,-0.0945 -0.2578,-0.17417 -0.40049,-0.23616 -0.17986,-0.0782 -0.3675,-0.13322 -0.56224,-0.16433 -0.18116,-0.0289 -0.36452,-0.045 -0.54674,-0.045 -0.17165,0 -0.3431,0.0158 -0.51366,0.0434 -10e-4,1.6e-4 -0.003,-1.7e-4 -0.004,0 -0.18296,0.0242 -0.36283,0.0715 -0.53537,0.14211 -0.16184,0.0662 -0.31284,0.15463 -0.4532,0.25993 h -1.14567 c -0.01,-0.0122 -0.0185,-0.0248 -0.0284,-0.0367 -0.10628,-0.12757 -0.24145,-0.2291 -0.39068,-0.29869 -0.14994,-0.0699 -0.31565,-0.10955 -0.48214,-0.10955 -0.15239,0 -0.30522,0.0344 -0.44338,0.0935 -0.1161,0.0498 -0.20956,0.13728 -0.30076,0.2248 -0.0951,-0.0894 -0.19306,-0.17794 -0.31264,-0.22635 -0.14018,-0.0592 -0.29304,-0.092 -0.44545,-0.092 -0.1257,0 -0.25082,0.0211 -0.36897,0.0605 l -0.006,0.002 -0.006,0.002 c -0.007,0.003 -0.0125,0.01 -0.0196,0.0124 h -1.47382 a 0.26458333,0.26458333 0 0 0 -0.26458,0.26458 V 71.2239 H 124.534 c -0.0824,-0.064 -0.16894,-0.12197 -0.26045,-0.17156 -0.19488,-0.10556 -0.40744,-0.17902 -0.6289,-0.21859 -0.19606,-0.0361 -0.39241,-0.0553 -0.58963,-0.0553 h -0.002 c -0.19852,0 -0.40012,0.0182 -0.60203,0.0543 h -0.002 -0.002 c -0.21577,0.04 -0.42279,0.11469 -0.61547,0.21911 -0.0921,0.0499 -0.17919,0.10817 -0.262,0.1726 H 66.650195 v 5.01778 h 54.830245 c 0.11155,0.0954 0.23202,0.17959 0.36122,0.2496 l 0.004,0.002 0.002,0.002 c 0.19595,0.10189 0.4048,0.17517 0.6196,0.21498 h 0.002 c 0.20191,0.0361 0.40352,0.0548 0.60203,0.0548 0.17427,0 0.34629,-0.0161 0.51521,-0.045 0.17871,-0.0234 0.35424,-0.0643 0.52142,-0.12506 l 0.008,-0.002 0.008,-0.004 c 0.17273,-0.0707 0.33697,-0.16297 0.48679,-0.27337 l 0.006,-0.004 0.006,-0.004 c 0.0268,-0.0212 0.052,-0.0438 0.0775,-0.0661 h 0.64285 v 0.18242 a 0.26458333,0.26458333 0 0 0 0.26459,0.26458 h 0.18293 4.21008 a 0.26458333,0.26458333 0 0 0 0.26458,-0.26458 v -0.18242 h 0.39223 c 0.0968,0.11026 0.2085,0.20712 0.33279,0.28474 0.14588,0.0911 0.30725,0.15616 0.47646,0.19172 h 0.002 0.002 c 0.15319,0.0306 0.30715,0.047 0.45888,0.047 0.16831,0 0.33651,-0.0215 0.5023,-0.061 0.12077,-0.0288 0.2321,-0.0803 0.34365,-0.13075 a 0.12405915,0.12405915 0 0 0 0.13229,0.11524 h 1.65571 a 0.26458333,0.26458333 0 0 0 0.26459,-0.26458 v -0.18242 h 0.88005 c 0.11157,0.0955 0.23198,0.18008 0.36121,0.25012 0.1926,0.10433 0.39971,0.1786 0.61547,0.21859 0.19733,0.0366 0.39525,0.0548 0.59376,0.0548 h 0.447 v -0.045 c 0.038,-0.006 0.0775,-0.002 0.11524,-0.0103 0.20235,-0.0321 0.39755,-0.0924 0.58033,-0.17983 l 0.004,-0.002 0.004,-0.002 c 0.15448,-0.0773 0.29623,-0.17296 0.42374,-0.28474 h 1.55081 c 0.0379,0.0328 0.0769,0.0638 0.11731,0.0935 0.15395,0.11346 0.32272,0.20409 0.50178,0.26923 0.16962,0.0617 0.34344,0.10392 0.52141,0.12712 h 0.002 c 0.16345,0.0208 0.33223,0.0336 0.50384,0.0336 0.15779,0 0.31194,-0.0111 0.46509,-0.031 0.001,-1.2e-4 0.003,1.1e-4 0.004,0 0.17735,-0.0157 0.35125,-0.0502 0.51728,-0.10542 l 0.006,-0.002 0.006,-0.002 c 0.16711,-0.0608 0.32527,-0.13752 0.47284,-0.23047 0.0741,-0.0449 0.14372,-0.0965 0.20929,-0.15245 h 10.94817 v -5.01778 h -11.12387 c -0.004,-0.002 -0.007,-0.005 -0.0103,-0.008 -0.13994,-0.10701 -0.29156,-0.19391 -0.45476,-0.25786 -0.001,-5e-4 -0.003,4.9e-4 -0.004,0 -0.16974,-0.0724 -0.34733,-0.12227 -0.53123,-0.14625 -0.15791,-0.021 -0.32017,-0.0331 -0.48628,-0.0331 l -0.001,-0.001 c -0.15247,0 -0.30483,0.0113 -0.45682,0.031 -6.3e-4,6e-5 -0.001,-6e-5 -0.002,0 -0.17522,0.0161 -0.34761,0.0572 -0.51366,0.11937 -0.17085,0.0576 -0.33327,0.13853 -0.48421,0.24185 l -0.006,0.002 -0.004,0.004 c -0.0209,0.0151 -0.0407,0.0316 -0.061,0.0475 h -1.78335 c -0.10266,-0.0771 -0.21269,-0.14473 -0.33021,-0.19947 -0.18378,-0.0946 -0.38084,-0.15883 -0.58601,-0.1912 -0.1839,-0.036 -0.37143,-0.0548 -0.56069,-0.0548 z m -14.22704,0.447 c 0.17105,0 0.34209,0.0154 0.51315,0.047 0.17738,0.0317 0.34198,0.0892 0.49402,0.17157 0.15205,0.0824 0.28839,0.18994 0.40876,0.32298 0.12038,0.1267 0.21506,0.26898 0.28474,0.42736 0.076,0.15205 0.12711,0.31716 0.15245,0.49454 0.0317,0.17106 0.0475,0.3421 0.0475,0.51315 v 1.06402 h -2.64222 v 0.076 c 0,0.12038 0.009,0.24085 0.0284,0.36122 0.0253,0.11404 0.07,0.22161 0.13332,0.32298 0.0633,0.095 0.1486,0.17139 0.25632,0.22841 0.11404,0.0507 0.22806,0.076 0.34209,0.076 0.0824,0 0.16517,-0.009 0.24753,-0.0284 0.0824,-0.019 0.15524,-0.0508 0.2186,-0.0951 0.0697,-0.0507 0.12321,-0.11117 0.16123,-0.18087 0.0443,-0.076 0.0696,-0.15484 0.076,-0.2372 h 1.15962 c -0.007,0.14572 -0.0354,0.29096 -0.0858,0.43667 -0.0443,0.14571 -0.11077,0.28205 -0.19947,0.40876 -0.0824,0.12037 -0.18349,0.22794 -0.30386,0.32298 -0.12037,0.0887 -0.25026,0.16157 -0.38964,0.21859 -0.13938,0.0507 -0.28514,0.0859 -0.43718,0.1049 -0.14572,0.0253 -0.29496,0.0377 -0.44701,0.0377 -0.17105,0 -0.34506,-0.0159 -0.52244,-0.0476 -0.17106,-0.0317 -0.33564,-0.0887 -0.49403,-0.17105 -0.15205,-0.0824 -0.28839,-0.18697 -0.40876,-0.31367 -0.12037,-0.12671 -0.21853,-0.26898 -0.29456,-0.42737 -0.076,-0.15838 -0.13007,-0.32297 -0.16174,-0.49402 -0.0253,-0.17106 -0.0377,-0.34558 -0.0377,-0.52297 v -1.13998 c 0,-0.17105 0.0124,-0.34209 0.0377,-0.51315 0.0317,-0.17738 0.0827,-0.34249 0.15244,-0.49454 0.076,-0.15838 0.17418,-0.30066 0.29456,-0.42736 0.12037,-0.13304 0.25619,-0.24062 0.40824,-0.32298 0.15205,-0.0824 0.31367,-0.13989 0.48473,-0.17157 0.17738,-0.0317 0.3519,-0.047 0.52296,-0.047 z m 4.42815,0 c 0.095,0 0.18674,0.0188 0.27544,0.0568 0.095,0.038 0.17436,0.095 0.23771,0.17105 0.0633,0.0697 0.1139,0.14901 0.15193,0.23771 0.038,0.0887 0.0697,0.17692 0.0951,0.26562 0.0253,-0.0887 0.0571,-0.17693 0.0951,-0.26562 0.038,-0.0887 0.0886,-0.16802 0.15193,-0.23771 0.0633,-0.076 0.13969,-0.13304 0.22841,-0.17105 0.0887,-0.038 0.17744,-0.0568 0.26613,-0.0568 0.10137,0 0.19953,0.0218 0.29456,0.0661 0.095,0.0443 0.17384,0.10483 0.23719,0.18087 0.0633,0.076 0.11441,0.16128 0.15245,0.25632 0.0443,0.095 0.0756,0.19318 0.0946,0.29455 0.0253,0.095 0.0412,0.1932 0.0475,0.29456 0.007,0.10136 0.0103,0.203 0.0103,0.30437 v 3.62045 h -1.01699 v -3.62045 c 0,-0.0507 -0.003,-0.10123 -0.01,-0.15193 -0.007,-0.057 -0.0161,-0.11105 -0.0284,-0.16175 -0.0127,-0.0507 -0.0385,-0.0983 -0.0765,-0.14262 -0.0317,-0.0507 -0.0758,-0.076 -0.13281,-0.076 -0.0507,0 -0.0948,0.0253 -0.13281,0.076 -0.0317,0.0443 -0.057,0.0919 -0.076,0.14262 -0.0127,0.0507 -0.0226,0.10472 -0.0289,0.16175 v 0.15193 3.62045 h -1.0263 v -3.62045 c 0,-0.0507 -0.003,-0.10123 -0.009,-0.15193 0,-0.057 -0.009,-0.11105 -0.0284,-0.16175 -0.0127,-0.0507 -0.038,-0.0983 -0.076,-0.14262 -0.0317,-0.0507 -0.0728,-0.076 -0.1235,-0.076 -0.057,0 -0.1046,0.0253 -0.14263,0.076 -0.0317,0.0443 -0.054,0.0919 -0.0667,0.14262 -0.0127,0.0507 -0.0221,0.10472 -0.0284,0.16175 -0.007,0.0507 -0.01,0.10123 -0.01,0.15193 v 3.62045 h -1.017 v -4.9413 h 1.017 v 0.43718 c 0.0317,-0.0697 0.0664,-0.13663 0.10438,-0.19998 0.0443,-0.0633 0.0949,-0.11687 0.15193,-0.16123 0.057,-0.0507 0.12046,-0.0889 0.19017,-0.11421 0.076,-0.0253 0.15187,-0.0377 0.22789,-0.0377 z m 5.05551,0 c 0.15838,0 0.31704,0.0124 0.47542,0.0377 0.15838,0.0253 0.31059,0.07 0.45631,0.13333 0.14571,0.0633 0.27856,0.14859 0.39894,0.25631 0.1267,0.10137 0.22784,0.22184 0.30385,0.36122 0.076,0.13937 0.13008,0.2881 0.16175,0.44648 0.0317,0.15205 0.0475,0.30722 0.0475,0.46561 v 3.31659 h -1.15961 v -0.71262 c -0.057,0.12038 -0.12989,0.2344 -0.2186,0.3421 -0.0887,0.10137 -0.18982,0.18663 -0.30385,0.25632 -0.11404,0.0633 -0.23748,0.11092 -0.37052,0.14262 -0.13304,0.0317 -0.26642,0.0476 -0.39946,0.0476 -0.12038,0 -0.24382,-0.0124 -0.37052,-0.0377 -0.12038,-0.0253 -0.23092,-0.07 -0.33228,-0.13332 -0.10137,-0.0633 -0.19011,-0.14266 -0.26614,-0.23771 -0.076,-0.10136 -0.13948,-0.20546 -0.19016,-0.31316 -0.0443,-0.11404 -0.0761,-0.23155 -0.0951,-0.35192 -0.0127,-0.12671 -0.0191,-0.25015 -0.0191,-0.37052 0,-0.16472 0.0194,-0.32931 0.0574,-0.49403 0.038,-0.17105 0.10739,-0.32326 0.20877,-0.4563 0.10137,-0.13938 0.22185,-0.25637 0.36122,-0.3514 0.14572,-0.095 0.29792,-0.1714 0.45631,-0.22841 0.15838,-0.057 0.32297,-0.0947 0.49402,-0.11369 0.17106,-0.019 0.33913,-0.0284 0.50385,-0.0284 h 0.48421 v -0.27595 c 0,-0.095 -0.0124,-0.18674 -0.0377,-0.27544 -0.0253,-0.095 -0.07,-0.17436 -0.13332,-0.23771 -0.0633,-0.0697 -0.14215,-0.12025 -0.2372,-0.15193 -0.0887,-0.0317 -0.18092,-0.0475 -0.27595,-0.0475 -0.0824,0 -0.16465,0.0129 -0.24701,0.0382 -0.0824,0.019 -0.15524,0.0567 -0.2186,0.11369 -0.0633,0.0507 -0.11389,0.1171 -0.15192,0.19947 -0.0317,0.076 -0.0476,0.15535 -0.0476,0.23771 h -1.1591 c 0,-0.15205 0.0189,-0.30078 0.0568,-0.44648 0.0443,-0.14572 0.10779,-0.28206 0.19016,-0.40876 0.0824,-0.13305 0.18349,-0.24708 0.30386,-0.3421 0.12038,-0.095 0.25027,-0.17088 0.38964,-0.22789 0.13938,-0.057 0.28217,-0.0952 0.42788,-0.11421 0.15205,-0.0253 0.30374,-0.0377 0.45579,-0.0377 z m 4.74235,0 c 0.16472,0 0.32582,0.0154 0.4842,0.047 0.16472,0.0253 0.32041,0.0764 0.46613,0.15245 0.15204,0.0697 0.2849,0.1614 0.39894,0.27543 0.12037,0.11404 0.21853,0.24393 0.29455,0.38964 0.0824,0.13938 0.13938,0.29159 0.17105,0.45631 0.038,0.15838 0.0568,0.31948 0.0568,0.4842 v 0.0191 h -1.16892 v -0.009 c 0,-0.10137 -0.0159,-0.20301 -0.0476,-0.30437 -0.0253,-0.10137 -0.0694,-0.19011 -0.13281,-0.26614 -0.057,-0.0824 -0.13284,-0.14234 -0.22789,-0.18035 -0.095,-0.0443 -0.19319,-0.0667 -0.29455,-0.0667 -0.11404,0 -0.22213,0.0288 -0.3235,0.0858 -0.10137,0.057 -0.18017,0.13633 -0.23719,0.23771 -0.0507,0.095 -0.0859,0.19913 -0.10491,0.31316 -0.019,0.11404 -0.0284,0.22807 -0.0284,0.3421 v 1.1405 c 0,0.11403 0.009,0.22806 0.0284,0.3421 0.019,0.11403 0.0542,0.22161 0.10491,0.32297 0.057,0.095 0.1358,0.17139 0.23719,0.22841 0.10137,0.057 0.20946,0.0853 0.3235,0.0853 0.10136,0 0.19952,-0.0188 0.29455,-0.0568 0.095,-0.0443 0.17088,-0.10431 0.22789,-0.18035 0.0633,-0.0824 0.10745,-0.1746 0.13281,-0.27596 0.0317,-0.10136 0.0476,-0.20249 0.0476,-0.30385 v -0.0103 h 1.16892 v 0.0191 c 0,0.16472 -0.0189,0.32931 -0.0568,0.49403 -0.0317,0.15838 -0.0887,0.31059 -0.17105,0.4563 -0.076,0.13938 -0.17418,0.26631 -0.29455,0.38034 -0.11404,0.11404 -0.2469,0.20872 -0.39894,0.28474 -0.14572,0.0697 -0.30141,0.11728 -0.46613,0.14262 -0.15838,0.0317 -0.31948,0.0476 -0.4842,0.0476 -0.17106,0 -0.3421,-0.0159 -0.51315,-0.0476 -0.17105,-0.0317 -0.33268,-0.0887 -0.48473,-0.17105 -0.15205,-0.0824 -0.28839,-0.18697 -0.40876,-0.31367 -0.11404,-0.13305 -0.20923,-0.27829 -0.28525,-0.43667 -0.0697,-0.15838 -0.11728,-0.32349 -0.14263,-0.49454 -0.0253,-0.17105 -0.0377,-0.34209 -0.0377,-0.51315 v -1.1405 c 0,-0.17105 0.0124,-0.34209 0.0377,-0.51314 0.0253,-0.17106 0.0729,-0.33564 0.14263,-0.49403 0.076,-0.15838 0.17121,-0.30066 0.28525,-0.42736 0.12037,-0.13304 0.25671,-0.24114 0.40876,-0.3235 0.15205,-0.0824 0.31368,-0.13937 0.48473,-0.17105 0.17105,-0.0317 0.34209,-0.047 0.51315,-0.047 z m 4.78937,0 c 0.14571,0 0.28799,0.009 0.42736,0.0284 0.14571,0.019 0.28502,0.0567 0.41806,0.11369 0.13305,0.0507 0.25701,0.12057 0.37104,0.20929 0.12037,0.0824 0.2215,0.184 0.30386,0.30437 0.0824,0.11403 0.14285,0.24341 0.18087,0.38912 0.038,0.13938 0.0568,0.2792 0.0568,0.41858 v 0.0186 h -1.15962 c 0,-0.076 -0.0159,-0.14542 -0.0475,-0.20878 -0.0317,-0.0697 -0.0787,-0.1267 -0.14211,-0.17105 -0.057,-0.0443 -0.12046,-0.0731 -0.19017,-0.0858 -0.0697,-0.019 -0.14257,-0.0284 -0.21859,-0.0284 -0.0633,0 -0.12976,0.006 -0.19947,0.0191 -0.0697,0.006 -0.13664,0.0283 -0.19999,0.0667 -0.057,0.0317 -0.10409,0.0758 -0.14211,0.13281 -0.038,0.057 -0.0574,0.12046 -0.0574,0.19017 0,0.10137 0.0318,0.19308 0.0951,0.27544 0.0697,0.0823 0.14605,0.14878 0.22841,0.19947 0.0887,0.0443 0.1804,0.0825 0.27544,0.1142 0.10136,0.0253 0.19953,0.0536 0.29455,0.0853 0.095,0.0253 0.18675,0.0571 0.27544,0.0951 0.095,0.038 0.18674,0.0791 0.27543,0.12351 0.0887,0.0443 0.17448,0.0954 0.25684,0.15244 0.0887,0.057 0.16802,0.11995 0.23771,0.18966 0.0697,0.0697 0.13315,0.14605 0.19017,0.22841 0.0633,0.0824 0.11686,0.16762 0.16123,0.25631 0.0443,0.0887 0.0761,0.18389 0.0951,0.28526 0.0253,0.095 0.0382,0.19319 0.0382,0.29455 0,0.14571 -0.0258,0.2885 -0.0765,0.42788 -0.0443,0.13938 -0.11373,0.26578 -0.20877,0.37982 -0.0887,0.11404 -0.19627,0.20923 -0.32298,0.28526 -0.12037,0.076 -0.25027,0.13948 -0.38964,0.19017 -0.13304,0.0443 -0.27235,0.0726 -0.41806,0.0853 -0.13938,0.019 -0.28217,0.0284 -0.42788,0.0284 -0.15205,0 -0.30077,-0.009 -0.44649,-0.0284 -0.14571,-0.019 -0.2885,-0.0537 -0.42788,-0.10438 -0.13938,-0.0507 -0.26927,-0.12058 -0.38964,-0.20929 -0.12036,-0.0887 -0.22498,-0.19331 -0.31367,-0.31368 -0.0887,-0.12037 -0.15513,-0.25026 -0.19948,-0.38964 -0.038,-0.14571 -0.0568,-0.29444 -0.0568,-0.44648 v -0.0191 h 1.15962 v 0.0103 c 0,0.076 0.0188,0.15188 0.0568,0.2279 0.038,0.0697 0.0886,0.12669 0.15193,0.17104 0.0697,0.0443 0.14257,0.0761 0.21859,0.0951 0.0824,0.0127 0.16466,0.0191 0.24702,0.0191 0.0697,0 0.14256,-0.004 0.21859,-0.0103 0.076,-0.0127 0.14593,-0.0345 0.20929,-0.0661 0.0697,-0.0317 0.1267,-0.0763 0.17105,-0.13333 0.0507,-0.0633 0.076,-0.12975 0.076,-0.19947 0,-0.10136 -0.0352,-0.19307 -0.1049,-0.27543 -0.0633,-0.0824 -0.13918,-0.14583 -0.22789,-0.19017 -0.0887,-0.0507 -0.18041,-0.0889 -0.27544,-0.11421 -0.095,-0.0317 -0.19022,-0.0634 -0.28525,-0.0951 -0.095,-0.0317 -0.19022,-0.0629 -0.28526,-0.0946 -0.095,-0.038 -0.18674,-0.0797 -0.27543,-0.12402 -0.0887,-0.0507 -0.17397,-0.1042 -0.25632,-0.16123 -0.0824,-0.057 -0.16168,-0.12047 -0.23771,-0.19017 -0.0697,-0.0697 -0.13315,-0.14257 -0.19017,-0.21859 -0.057,-0.0824 -0.10756,-0.16763 -0.15193,-0.25632 -0.0443,-0.095 -0.079,-0.19022 -0.10438,-0.28525 -0.019,-0.10137 -0.0289,-0.20302 -0.0289,-0.30438 0,-0.13938 0.0223,-0.2752 0.0667,-0.40824 0.0443,-0.13938 0.1078,-0.26282 0.19017,-0.37052 0.0887,-0.11404 0.18982,-0.21271 0.30386,-0.29507 0.12036,-0.0824 0.24729,-0.14531 0.38033,-0.18966 0.13304,-0.0507 0.26939,-0.0824 0.40877,-0.0951 0.13937,-0.019 0.27868,-0.0284 0.41806,-0.0284 z m -19.01538,0.98805 c -0.11404,0 -0.2251,0.0288 -0.3328,0.0858 -0.1077,0.057 -0.19296,0.13582 -0.25631,0.2372 -0.057,0.095 -0.0982,0.20313 -0.12351,0.32349 -0.019,0.11404 -0.0289,0.22807 -0.0289,0.3421 v 0.076 h 1.4826 v -0.076 c 0,-0.11403 -0.0124,-0.22806 -0.0377,-0.3421 -0.019,-0.12036 -0.0607,-0.22846 -0.12403,-0.32349 -0.057,-0.10137 -0.13929,-0.18018 -0.24701,-0.2372 -0.1077,-0.057 -0.21825,-0.0858 -0.33228,-0.0858 z m 9.68313,1.97662 c -0.0697,0 -0.13909,0.003 -0.20877,0.01 -0.0633,0.007 -0.12976,0.0161 -0.19947,0.0284 -0.0633,0.0127 -0.1268,0.035 -0.19017,0.0667 -0.0633,0.0253 -0.12035,0.06 -0.17105,0.10438 -0.0507,0.0443 -0.0888,0.10135 -0.11421,0.17105 -0.0253,0.0633 -0.0377,0.13028 -0.0377,0.19999 0,0.076 0.0124,0.15187 0.0377,0.22789 0.0253,0.076 0.0665,0.14245 0.12351,0.19947 0.057,0.0507 0.12394,0.0854 0.19999,0.10439 0.076,0.019 0.15186,0.0289 0.22789,0.0289 v -5.2e-4 c 0.1077,0 0.21528,-0.0159 0.32298,-0.0475 0.1077,-0.0317 0.19941,-0.0857 0.27543,-0.16175 0.076,-0.076 0.13007,-0.16476 0.16175,-0.26613 0.038,-0.1077 0.0568,-0.21528 0.0568,-0.32298 v -0.3421 z" />
  </g>
</svg>
